# xmcd
#
# Track frame offsets:
#	150
#	16535
#	37360
#	58130
#
# Disc length: 1052 seconds
#
# Revision: 0
# Processed by: cddbd v1.5.2PL0 Copyright (c) Steve Scherf et al.
# Submitted via: audiograbber 1.83.01
#
DISCID=2e041a04
DTITLE=Joe - Maxi
DYEAR=1993
DGENRE=Dance
TTITLE0=I´m in luv ( E Smoove Radio Version )
TTITLE1=I´m in luv ( Extended Remix Version )
TTITLE2=I´m in luv ( Instrumental Version )
TTITLE3=The one for me
EXTD=
EXTT0=
EXTT1=
EXTT2=
EXTT3=
PLAYORDER=
